<?xml version="1.0" encoding="UTF-8" standalone="no"?>
<svg
   xmlns:dc="http://purl.org/dc/elements/1.1/"
   xmlns:cc="http://creativecommons.org/ns#"
   xmlns:rdf="http://www.w3.org/1999/02/22-rdf-syntax-ns#"
   xmlns:svg="http://www.w3.org/2000/svg"
   xmlns="http://www.w3.org/2000/svg"
   xmlns:sodipodi="http://sodipodi.sourceforge.net/DTD/sodipodi-0.dtd"
   xmlns:inkscape="http://www.inkscape.org/namespaces/inkscape"
   viewBox="-196.298 -121.012 1226.406 742.025"
   width="1226.406"
   height="742.025"
   id="svg4202"
   version="1.1"
   inkscape:version="0.91 r13725"
   sodipodi:docname="melbourne.svg">
  <metadata
     id="metadata4212">
    <rdf:RDF>
      <cc:Work
         rdf:about="">
        <dc:format>image/svg+xml</dc:format>
        <dc:type
           rdf:resource="http://purl.org/dc/dcmitype/StillImage" />
      </cc:Work>
    </rdf:RDF>
  </metadata>
  <defs
     id="defs4210" />
  <sodipodi:namedview
     pagecolor="#ffffff"
     bordercolor="#666666"
     borderopacity="1"
     objecttolerance="10"
     gridtolerance="10"
     guidetolerance="10"
     inkscape:pageopacity="0"
     inkscape:pageshadow="2"
     inkscape:window-width="1285"
     inkscape:window-height="760"
     id="namedview4208"
     showgrid="false"
     inkscape:zoom="0.66943573"
     inkscape:cx="591.54297"
     inkscape:cy="371.01251"
     inkscape:window-x="0"
     inkscape:window-y="0"
     inkscape:window-maximized="0"
     inkscape:current-layer="svg4202" />
  <path
     style="fill:none;stroke:#000000;stroke-width:1;stroke-linecap:round;stroke-miterlimit:4;stroke-dashoffset:0"
     d="m 564.06244,320.81135 c 8.01087,0.45194 16.02018,0.93144 24.03027,1.39716 3.46266,0.20132 7.38603,-1.43155 9.93252,-3.52446 2.46059,-2.02232 6.71072,-8.44971 9.08871,-10.82124 7.67567,-7.65479 15.19057,-13.70285 23.07228,-21.25771 4.09263,-3.92291 10.62802,-9.61796 14.85075,-13.17561 2.38462,-2.00904 5.84184,-3.35176 8.97132,-3.52445 6.41345,-0.35391 13.08944,1.48555 19.65748,1.94464 43.96949,3.07338 84.46714,6.1809 128.16144,12.23087 15.1951,2.10394 30.5409,6.15631 44.5067,12.23087 13.8934,6.04307 26.7879,15.01608 39.0709,24.12201 43.3222,32.11665 85.52951,65.93171 127.74469,99.54572 6.142,4.8906 13.2987,12.01346 17.4969,17.8367 1.1323,1.5706 -0.2137,4.42443 -1.3354,6.21339 -20.8407,33.23758 -39.48006,62.14634 -61.3478,94.86119 -6.67095,9.97996 -12.46264,21.43577 -21.06428,29.2182 -5.66771,5.12793 -14.22332,8.12256 -21.74378,9.5129 -5.95615,1.10114 -12.92568,0.329 -18.68605,-2.03848 -37.50068,-15.41258 -73.81917,-35.14442 -111.09711,-51.30172 -2.6989,-1.16978 -6.35477,-1.71227 -8.83341,-0.6795 -2.95731,1.23221 -6.55335,4.26774 -7.47442,7.47443 -2.13665,7.4387 -0.90317,16.32909 -1.69874,24.46175 -1.24287,12.70513 -2.15891,25.58852 -4.4167,38.0516 -0.57341,3.16526 -1.99769,6.4509 -4.077,8.83341 -3.35669,3.84618 -8.1761,6.5413 -12.2308,9.85265 -2.7402,2.23784 -4.98389,5.57573 -8.1539,6.79493 -4.19119,1.61194 -9.2828,1.9522 -13.9297,1.69873 -14.0392,-0.76577 -28.1674,-2.59618 -42.12852,-4.75645 -35.07556,-5.4274 -70.00643,-11.89705 -104.98167,-18.00656 -30.08118,-5.25461 -60.15805,-10.53411 -90.23252,-15.82742"
     id="path16182"
     inkscape:connector-curvature="0" />
  <path
     style="fill:none;stroke:#000000;stroke-width:4;stroke-linecap:round;stroke-miterlimit:4;stroke-dashoffset:0"
     d="m -108.62089,-32.712546 c 6.51601,-14.94364 11.845907,-30.49535 19.405229,-44.44024 2.344975,-4.32584 7.477182,-8.42904 12.014121,-9.08693 6.385552,-0.92595 13.982138,1.79103 21.033977,2.03506 8.122541,0.28108 16.516827,-0.0773 24.46175,-1.69873 8.702657,-1.77607 17.39178,-4.74612 25.4809891,-8.49366 11.9558404,-5.53886 22.5081689,-14.494174 34.6541409,-19.365554 9.031558,-3.62228 19.15111,-4.89952 28.87845,-6.11544 9.29846,-1.16231 18.86993,-1.66061 28.19896,-1.01924 8.79079,0.60437 17.730513,2.21591 26.160473,4.75645 8.10437,2.44241 16.43315,5.46108 23.44251,10.1924 15.64041,10.557284 30.42165,22.944584 44.50679,35.673384 16.49204,14.90392 31.9068,31.09632 47.22477,47.22476"
     id="path16180"
     inkscape:connector-curvature="0" />
  <path
     style="fill:none;stroke:#000000;stroke-width:3;stroke-linecap:round;stroke-miterlimit:4;stroke-dashoffset:0"
     d="M 495.72081,582.17889 C 445.3879,573.31996 395.06171,564.42235 344.73331,555.538 308.37394,549.11957 271.8786,543.16283 235.67469,536.17245 c -3.09343,-0.59729 -8.20602,-0.20474 -12.57062,-4.75646 -4.66531,-4.86532 -4.97575,-14.29289 -4.41671,-21.74377 0.65476,-8.72676 -1.59183,-17.12537 -6.79493,-24.46175 -6.12178,-8.63171 -14.63462,-16.48887 -23.44251,-22.42327 -7.16019,-4.82424 -16.10011,-7.31674 -24.46175,-9.85265 -5.45471,-1.6543 -11.29715,-2.01862 -16.98732,-2.71797 -14.58137,-1.79212 -29.37047,-2.20321 -43.8273,-4.75645 -32.994431,-5.82718 -65.762801,-13.26225 -98.5264838,-20.38479 -6.307168,-1.37112 -12.60258,-2.94656 -18.6860602,-5.0962 -25.96594,-9.17524 -51.760607,-18.95407 -77.46221,-28.87845 -8.612796,-3.32573 -17.162966,-6.87284 -25.480976,-10.87189 -15.23774,-7.32584 -31.14732,-14.19342 -45.18629,-23.10276 -3.62785,-2.30229 -6.82039,-6.68123 -7.81417,-10.53214 -0.8182,-3.17052 0.81731,-7.3644 2.37823,-10.53214 2.28954,-4.64643 6.10472,-8.61456 9.17315,-12.91037 4.85898,-6.80258 11.12193,-12.92762 14.6091,-20.38479 3.87401,-8.28442 6.29161,-17.73224 7.47443,-26.83998 1.08215,-8.33258 1.2751,-17.42567 -0.6795,-25.48098 -1.78262,-7.34653 -6.29622,-14.26784 -10.53214,-20.72454 -7.42871,-11.32337 -16.25676,-21.78251 -24.46175,-32.61566 -6.29086,-8.30591 -12.9345,-16.35674 -19.0258,-24.8015 -1.9373,-2.6858 -4.46845,-5.53346 -5.02836,-8.75603 -0.96291,-5.54198 -1.12685,-11.80661 0.27191,-17.40445 6.57053,-26.29528 14.23311,-52.895055 24.122,-78.141675 5.05996,-12.91823 13.10623,-24.69029 20.72454,-36.35288 10.728,-16.42312 24.80995,-30.82492088 34.31439,-47.90426 2.96156,-5.32187 5.57515,-10.84668 8.02156,-16.45719"
     id="path16178"
     inkscape:connector-curvature="0" />
  <path
     style="fill:none;stroke:#000000;stroke-width:3;stroke-linecap:round;stroke-miterlimit:4;stroke-dashoffset:0"
     d="m 228.33506,-23.050286 c 14.5321,13.7058801 29.06419,27.4117701 43.59629,41.11765 2.26522,2.13643 5.67791,5.02089 4.80606,8.01011 -0.74761,2.56323 -0.6408,5.55367 -2.24282,7.6897 -6.08768,8.1169 -17.34445,14.24625 -18.26304,24.35071 -0.42721,4.69926 -1.46298,9.38263 -1.28162,14.09779 0.1068,2.77684 1.12857,10.98929 0.32041,8.33051 -0.0318,-0.10451 -0.11456,-0.42105 -0.0953,-0.31353 2.48925,13.8935 8.52529,27.484826 14.6091,40.429826 14.30098,30.42931 29.50703,60.7677 46.54527,89.69308 7.31026,12.41044 16.50144,23.99306 26.50023,34.3144 11.06549,11.42244 24.05291,21.18768 36.69262,30.91693 4.57411,3.52086 9.72831,6.35293 14.94885,8.83341 15.2775,7.25892 30.54719,15.11484 46.54527,20.38479 12.88038,4.24295 26.61643,6.136 40.09009,8.15391 19.04158,2.85179 38.22826,5.40174 57.45563,6.4552 8.50011,0.46572 17.001,0.91766 25.50034,1.39715"
     id="path16174"
     inkscape:connector-curvature="0" />
</svg>
